<svg width="151" height="65" viewBox="0 0 151 65" fill="none" xmlns="http://www.w3.org/2000/svg">
<path d="M70.8573 53L70.119 49.7568H66.7704L66.0321 53H63.6415L66.8231 40.0977H70.0663L73.2567 53H70.8573ZM69.6708 47.6387L68.9852 44.6504C68.9442 44.4688 68.8505 44.0146 68.704 43.2881C68.5634 42.5557 68.4784 42.0664 68.4491 41.8203C68.3729 42.3242 68.2762 42.8809 68.1591 43.4902C68.0419 44.0938 67.7372 45.4766 67.245 47.6387H69.6708Z" fill="black" fill-opacity="0.65"/>
<path d="M83.3905 53H80.4725L76.4999 43.6924H76.3856C76.5321 44.4014 76.6053 45.1631 76.6053 45.9775V53H74.3905V40.1504H77.326L81.2635 49.3613H81.3602C81.2489 48.7461 81.1932 48.0137 81.1932 47.1641V40.1504H83.3905V53Z" fill="black" fill-opacity="0.65"/>
<path d="M88.7518 45.2217L90.4657 40.1504H92.9706L89.9208 47.8496V53H87.5653V47.9463L84.5243 40.1504H87.0468L88.7518 45.2217Z" fill="black" fill-opacity="0.65"/>
<path d="M99.6854 53L98.9471 49.7568H95.5985L94.8602 53H92.4696L95.6512 40.0977H98.8944L102.085 53H99.6854ZM98.4989 47.6387L97.8134 44.6504C97.7723 44.4688 97.6786 44.0146 97.5321 43.2881C97.3915 42.5557 97.3065 42.0664 97.2772 41.8203C97.201 42.3242 97.1044 42.8809 96.9872 43.4902C96.87 44.0938 96.5653 45.4766 96.0731 47.6387H98.4989Z" fill="black" fill-opacity="0.65"/>
<path d="M111.225 53H108.677L106.567 47.5068L105.609 48.4648V53H103.219V40.1504H105.609V46.5225L106.444 44.5977L108.633 40.1504H111.19L108.22 45.7139L111.225 53Z" fill="black" fill-opacity="0.65"/>
<path d="M120.92 46.5576C120.92 48.6846 120.521 50.3193 119.724 51.4619C118.928 52.6045 117.788 53.1758 116.306 53.1758C114.817 53.1758 113.675 52.6074 112.878 51.4707C112.081 50.3281 111.682 48.6846 111.682 46.54C111.682 44.4131 112.081 42.7842 112.878 41.6533C113.675 40.5166 114.823 39.9482 116.323 39.9482C117.806 39.9482 118.942 40.5195 119.733 41.6621C120.524 42.7988 120.92 44.4307 120.92 46.5576ZM114.126 46.5576C114.126 48.0225 114.31 49.1387 114.68 49.9062C115.049 50.6738 115.591 51.0576 116.306 51.0576C117.747 51.0576 118.468 49.5576 118.468 46.5576C118.468 43.5576 117.753 42.0576 116.323 42.0576C115.597 42.0576 115.049 42.4414 114.68 43.209C114.31 43.9707 114.126 45.0869 114.126 46.5576ZM113.37 37.6982C113.37 37.3408 113.473 37.0625 113.678 36.8633C113.883 36.6641 114.167 36.5645 114.53 36.5645C114.893 36.5645 115.178 36.6699 115.383 36.8809C115.594 37.0859 115.699 37.3584 115.699 37.6982C115.699 38.0322 115.594 38.3018 115.383 38.5068C115.178 38.7119 114.893 38.8145 114.53 38.8145C114.167 38.8145 113.883 38.7178 113.678 38.5244C113.473 38.3252 113.37 38.0498 113.37 37.6982ZM116.868 37.6982C116.868 37.3467 116.971 37.0713 117.176 36.8721C117.381 36.667 117.668 36.5645 118.037 36.5645C118.394 36.5645 118.679 36.6641 118.89 36.8633C119.1 37.0625 119.206 37.3408 119.206 37.6982C119.206 38.0439 119.1 38.3164 118.89 38.5156C118.684 38.7148 118.4 38.8145 118.037 38.8145C117.674 38.8145 117.387 38.7148 117.176 38.5156C116.971 38.3105 116.868 38.0381 116.868 37.6982Z" fill="black" fill-opacity="0.65"/>
<path d="M131.801 53H128.883L124.91 43.6924H124.796C124.942 44.4014 125.016 45.1631 125.016 45.9775V53H122.801V40.1504H125.736L129.674 49.3613H129.77C129.659 48.7461 129.603 48.0137 129.603 47.1641V40.1504H131.801V53Z" fill="black" fill-opacity="0.65"/>
<path d="M137.162 45.2217L138.876 40.1504H141.381L138.331 47.8496V53H135.975V47.9463L132.934 40.1504H135.457L137.162 45.2217Z" fill="black" fill-opacity="0.65"/>
<path d="M148.052 40.1504H150.46L147.436 53H144.395L141.39 40.1504H143.798L145.476 47.999C145.629 48.667 145.778 49.625 145.925 50.873C146.048 49.8125 146.203 48.8545 146.391 47.999L148.052 40.1504Z" fill="black" fill-opacity="0.65"/>
<path d="M63.6415 33V12.2H77.0815V16.808H69.1455V20.072H75.9295V24.68H69.1455V28.392H77.4015V33H63.6415Z" fill="black" fill-opacity="0.65"/>
<path d="M86.7987 22.888L86.4467 24.328H90.2867L89.9347 22.888C89.6787 21.8853 89.4227 20.7973 89.1667 19.624C88.9107 18.4506 88.6547 17.3413 88.3987 16.296H88.2707C88.0361 17.3626 87.7907 18.4826 87.5347 19.656C87.3001 20.808 87.0547 21.8853 86.7987 22.888ZM78.7987 33L85.1347 12.2H91.7907L98.1267 33H92.3027L91.2787 28.584H85.4547L84.4307 33H78.7987Z" fill="black" fill-opacity="0.65"/>
<path d="M100.11 33V12.2H105.614V19.944H105.742L110.99 12.2H117.006L110.798 20.648L118.222 33H112.206L107.598 25L105.614 27.816V33H100.11Z" fill="black" fill-opacity="0.65"/>
<path fill-rule="evenodd" clip-rule="evenodd" d="M36.9846 38.3874C45.7498 40.1821 50.1596 38.0532 50.1723 38.0473L51.542 40.9646C51.5268 40.9717 46.1671 43.5507 36.3511 41.541L36.9846 38.3874ZM5.66437 37.5574C5.69882 36.1645 5.85776 34.7763 6.12866 33.4039C7.44412 26.7358 11.4216 20.8045 16.5217 16.5933C22.0495 12.0268 29.698 8.90001 36.9578 10.3705L36.3333 13.5162C30.064 12.2459 23.3267 15.1511 18.5773 19.0732C14.0024 22.8519 10.4404 28.1376 9.27506 34.0452C9.04549 35.2092 8.90986 36.4128 8.87946 37.6499L5.66437 37.5574ZM12.9876 45.8667C10.1317 38.4583 12.7037 29.2392 17.8603 23.4633C24.808 15.6811 34.8605 14.7658 44.4382 18.0304L43.4092 21.0783C35.0679 18.2348 26.3495 18.803 20.2654 25.6175C15.9179 30.4871 13.5671 38.4592 15.9812 44.7216L12.9876 45.8667ZM25.1228 53.6358C17.2977 44.7753 13.1729 34.9411 23.9603 26.2241C28.8744 22.2534 35.1091 20.222 41.2119 22.8003C47.1167 25.2955 48.1765 31.8025 42.5652 35.3006C39.9365 36.9397 37.6895 36.9605 35.8303 36.9784C31.397 37.0212 32.1828 42.4005 35.281 43.6685C37.0747 44.4018 39.7606 44.7467 43.3545 44.7778L43.3419 47.9896C39.334 47.955 36.2559 47.5363 34.0696 46.6419C28.0815 44.1925 27.3454 33.8433 35.7895 33.7636C37.2353 33.7499 38.9834 33.7333 40.8545 32.5664C44.2464 30.4514 43.4748 27.2425 39.9745 25.7635C35.017 23.6687 29.9456 25.5309 25.9883 28.7293C16.8095 36.1457 20.9503 44.0533 27.533 51.5072L25.1228 53.6358ZM38.7838 30.6364C37.7139 30.5672 36.7125 30.5675 35.7941 30.6387C33.272 30.8344 31.1385 31.5317 29.6318 32.7701C25.3409 36.2961 27.1392 43.5888 30.7188 46.8135C33.0394 48.9044 36.0623 49.9155 38.5387 49.8577L38.6328 53.0764C35.4206 53.1507 31.5266 51.8635 28.5697 49.1996C23.4836 44.6171 21.7712 35.0594 27.5857 30.2818C29.6167 28.6117 32.3623 27.6811 35.5297 27.436C36.6587 27.3481 37.8122 27.3434 38.9752 27.4181L38.7838 30.6364Z" fill="#52C41A"/>
<path d="M48.6415 5.60272e-07L39.6415 9.53674e-07L39.6415 3.7245L48.0218 3.7245L48.0218 12L51.6415 12L51.6415 3C51.6415 1.34315 50.2983 4.87848e-07 48.6415 5.60272e-07Z" fill="#D6EBFF"/>
<path d="M4.64148 3L4.64148 12L8.36598 12L8.36598 3.6197L16.6415 3.6197L16.6415 -9.53674e-07L7.64148 -1.66869e-07C5.98463 -2.20227e-08 4.64148 1.34315 4.64148 3Z" fill="#D6EBFF"/>
<path d="M7.64148 65L16.6415 65L16.6415 61.2755L8.26118 61.2755L8.26118 53L4.64148 53L4.64148 62C4.64148 63.6569 5.98462 65 7.64148 65Z" fill="#D6EBFF"/>
<path d="M51.6415 62V53H47.917V61.3803H39.6415V65H48.6415C50.2983 65 51.6415 63.6569 51.6415 62Z" fill="#D6EBFF"/>
</svg>
