<svg width="47" height="44" viewBox="0 0 47 44" fill="none" xmlns="http://www.w3.org/2000/svg">
<path fill-rule="evenodd" clip-rule="evenodd" d="M31.9846 28.3874C40.7498 30.1821 45.1596 28.0532 45.1723 28.0473L46.542 30.9646C46.5268 30.9717 41.1671 33.5507 31.3511 31.541L31.9846 28.3874ZM0.664368 27.5574C0.698822 26.1645 0.857759 24.7763 1.12866 23.4039C2.44412 16.7358 6.42165 10.8045 11.5217 6.59329C17.0495 2.02681 24.698 -1.09999 31.9578 0.370534L31.3333 3.5162C25.064 2.24589 18.3267 5.15114 13.5773 9.07321C9.00244 12.8519 5.44045 18.1376 4.27506 24.0452C4.04549 25.2092 3.90986 26.4128 3.87946 27.6499L0.664368 27.5574ZM7.98755 35.8667C5.13167 28.4583 7.70369 19.2392 12.8603 13.4633C19.808 5.68109 29.8605 4.76583 39.4382 8.03044L38.4092 11.0783C30.0679 8.23481 21.3495 8.80304 15.2654 15.6175C10.9179 20.4871 8.5671 28.4592 10.9812 34.7216L7.98755 35.8667ZM20.1228 43.6358C12.2977 34.7753 8.17292 24.9411 18.9603 16.2241C23.8744 12.2534 30.1091 10.222 36.2119 12.8003C42.1167 15.2955 43.1765 21.8025 37.5652 25.3006C34.9365 26.9397 32.6895 26.9605 30.8303 26.9784C26.397 27.0212 27.1828 32.4005 30.281 33.6685C32.0747 34.4018 34.7606 34.7467 38.3545 34.7778L38.3419 37.9896C34.334 37.955 31.2559 37.5363 29.0696 36.6419C23.0815 34.1925 22.3454 23.8433 30.7895 23.7636C32.2353 23.7499 33.9834 23.7333 35.8545 22.5664C39.2464 20.4514 38.4748 17.2425 34.9745 15.7635C30.017 13.6687 24.9456 15.5309 20.9883 18.7293C11.8095 26.1457 15.9503 34.0533 22.533 41.5072L20.1228 43.6358ZM33.7838 20.6364C32.7139 20.5672 31.7125 20.5675 30.7941 20.6387C28.272 20.8344 26.1385 21.5317 24.6318 22.7701C20.3409 26.2961 22.1392 33.5888 25.7188 36.8135C28.0394 38.9044 31.0623 39.9155 33.5387 39.8577L33.6328 43.0764C30.4206 43.1507 26.5266 41.8635 23.5697 39.1996C18.4836 34.6171 16.7712 25.0594 22.5857 20.2818C24.6167 18.6117 27.3623 17.6811 30.5297 17.436C31.6587 17.3481 32.8122 17.3434 33.9752 17.4181L33.7838 20.6364Z" fill="#52C41A"/>
</svg>
